<svg width="24" height="24" viewBox="0 0 24 24" fill="none" xmlns="http://www.w3.org/2000/svg">
<path d="M11.5758 2.57577C11.8101 2.34144 12.19 2.34144 12.4244 2.57577L17.2244 7.37577C17.4586 7.61008 17.4586 7.98998 17.2244 8.22429C16.99 8.45861 16.6101 8.45861 16.3757 8.22429L12.6 4.44856V17.4C12.6 17.7313 12.3314 18 12 18C11.6687 18 11.4 17.7313 11.4 17.4V4.44856L7.62431 8.22429C7.39 8.45861 7.0101 8.45861 6.77579 8.22429C6.54146 7.98998 6.54146 7.61008 6.77579 7.37577L11.5758 2.57577ZM4.80005 21C4.80005 20.6687 5.06868 20.4 5.40005 20.4H18.6C18.9314 20.4 19.2 20.6687 19.2 21C19.2 21.3313 18.9314 21.6 18.6 21.6H5.40005C5.06868 21.6 4.80005 21.3313 4.80005 21Z" fill="#212121"/>
</svg>
