<svg width="24" height="24" viewBox="0 0 24 24" fill="none" xmlns="http://www.w3.org/2000/svg">
<path d="M19.2 21C19.2 21.3313 18.9313 21.6 18.6 21.6L5.39995 21.6C5.06863 21.6 4.79995 21.3313 4.79995 21C4.79995 20.6687 5.06863 20.4 5.39995 20.4L18.6 20.4C18.9313 20.4 19.2 20.6687 19.2 21Z" fill="#212121"/>
<path d="M11.9999 2.40002C12.3313 2.40002 12.5999 2.66866 12.5999 3.00002L12.5999 15.9515L16.3756 12.1757C16.61 11.9414 16.9898 11.9414 17.2242 12.1757C17.4585 12.4101 17.4585 12.79 17.2242 13.0243L12.4242 17.8243C12.3666 17.8818 12.3003 17.9253 12.2296 17.9545C12.1599 17.9833 12.0835 17.9995 12.0035 18H11.9999H11.9963C11.8439 17.9991 11.6919 17.9405 11.5756 17.8243L6.77558 13.0243C6.54134 12.79 6.54134 12.4101 6.77558 12.1757C7.00994 11.9414 7.38986 11.9414 7.62422 12.1757L11.3999 15.9515L11.3999 3.00002C11.3999 2.66866 11.6686 2.40002 11.9999 2.40002Z" fill="#212121"/>
</svg>
